<?xml version="1.0" standalone="no"?>
<!DOCTYPE svg PUBLIC "-//W3C//DTD SVG 20010904//EN"
 "http://www.w3.org/TR/2001/REC-SVG-20010904/DTD/svg10.dtd">
<svg version="1.0" xmlns="http://www.w3.org/2000/svg"
 width="512.000000pt" height="512.000000pt" viewBox="0 0 512.000000 512.000000"
 preserveAspectRatio="xMidYMid meet">
<metadata>
Created by potrace 1.14, written by Peter Selinger 2001-2017
</metadata>
<g transform="translate(0.000000,512.000000) scale(0.100000,-0.100000)"
fill="#000000" stroke="none">
<path d="M2430 4124 c-99 -9 -237 -36 -329 -65 -131 -41 -336 -144 -450 -226
-158 -113 -338 -298 -424 -435 -35 -57 -9 -128 48 -128 13 0 62 24 107 53 243
156 524 272 813 335 111 24 139 26 360 27 215 0 252 -2 355 -24 282 -59 617
-197 841 -347 73 -50 106 -54 137 -21 31 33 27 64 -15 127 -231 346 -639 614
-1040 684 -89 16 -321 27 -403 20z"/>
<path d="M1531 2540 c-147 -67 -237 -227 -248 -441 -12 -230 79 -428 232 -507
71 -36 169 -36 240 0 99 51 188 177 220 310 19 82 19 247 0 323 -52 202 -187
335 -339 335 -39 0 -77 -8 -105 -20z"/>
<path d="M3362 2529 c-145 -72 -232 -247 -232 -464 0 -169 45 -298 138 -397
68 -73 130 -102 217 -102 87 0 149 29 218 103 164 175 184 522 43 734 -97 146
-246 195 -384 126z"/>
</g>
</svg>
